<svg width="130" height="40" viewBox="0 0 130 40" fill="none" xmlns="http://www.w3.org/2000/svg">
<path d="M16.46 31.5V39.61H0V1.93H16.07V9.77001C18.04 6.77001 20.7 4.46 24.04 2.83C27.38 1.2 31.24 0.380005 35.61 0.380005C39.55 0.380005 43.32 1.26 46.92 3.02C50.52 4.78 53.39 7.59001 55.53 11.44C57.76 7.84001 60.78 5.1 64.59 3.21C68.4 1.33 72.62 0.380005 77.25 0.380005C80.51 0.380005 83.61 0.850005 86.57 1.8C89.53 2.74 92.12 4.24001 94.35 6.3C96.58 8.36 98.35 11.04 99.69 14.34C101.02 17.64 101.68 21.6 101.68 26.23V39.61H85.1V28.92C85.1 24.12 83.9 20.52 81.5 18.12C79.1 15.72 76.14 14.52 72.63 14.52C69.12 14.52 65.97 15.96 63.18 18.83C60.39 21.7 59 25.92 59 31.5V39.61H42.55V28.92C42.55 24.12 41.35 20.52 38.95 18.12C36.55 15.72 33.59 14.52 30.08 14.52C26.57 14.52 23.42 15.93 20.63 18.76C17.84 21.59 16.45 25.83 16.45 31.49L16.46 31.5Z" fill="black"/>
<path d="M129.4 23.16H112.94V39.62H129.4V23.16Z" fill="black"/>
</svg>
